# xmcd
#
# Track frame offsets:
#	150
#	14384
#	29650
#	44462
#	61336
#	80167
#	88754
#	104792
#	114538
#	131035
#	146254
#	165885
#	183603
#	187645
#	200910
#	222539
#	245634
#	255852
#	271588
#	288532
#	308075
#
# Disc length: 4328 seconds
#
# Revision: 0
# Processed by: cddbd v1.5.1PL0 Copyright (c) Steve Scherf et al.
# Submitted via: dBpowerAMP V4.0
#
DISCID=3710e615
DTITLE=Mississippi John Hurt - Mississippi John Hurt
DYEAR=2004
DGENRE=Blues
TTITLE0=Candy Man
TTITLE1=Hot Time In The Old Town
TTITLE2=Baby, What's Wrong With You
TTITLE3=Nobody's Business But Mine
TTITLE4=Trouble I Had All My Days
TTITLE5=I'm Satisfied
TTITLE6=Coffee Blues
TTITLE7=Shake That Thing
TTITLE8=Make Me A Pallet On Your Floor
TTITLE9=Talking Casey
TTITLE10=Frankie and Albert
TTITLE11=Casey Jones (Talkin' Crazy)
TTITLE12=C-H-I-C-K-E-N Blues
TTITLE13=Spike Driver's Blues
TTITLE14=Monday Morning Blues
TTITLE15=The Angels Laid Him Away
TTITLE16=My Creole Bell
TTITLE17=Salty Dog
TTITLE18=Here I Am, Oh Lord Send Me
TTITLE19=Richland Women Blues
TTITLE20=Lonesome Blues
EXTD=
EXTT0=
EXTT1=
EXTT2=
EXTT3=
EXTT4=
EXTT5=
EXTT6=
EXTT7=
EXTT8=
EXTT9=
EXTT10=
EXTT11=
EXTT12=
EXTT13=
EXTT14=
EXTT15=
EXTT16=
EXTT17=
EXTT18=
EXTT19=
EXTT20=
PLAYORDER=
